<svg id="Layer_1" data-name="Layer 1" xmlns="http://www.w3.org/2000/svg" xmlns:xlink="http://www.w3.org/1999/xlink" viewBox="0 0 1024 640"><defs><style>.cls-1{fill:#ff7900;fill-opacity:0.85;}.cls-2{fill:#0cf;fill-opacity:0.75;}.cls-3{fill:#90c;fill-opacity:0.6;}.cls-16,.cls-4{fill:#fff;}.cls-4{fill-opacity:0.5;}.cls-14,.cls-15,.cls-5{fill:none;stroke-linecap:round;stroke-linejoin:round;}.cls-5{stroke:#90c;stroke-opacity:0.6;}.cls-6{fill:url(#radial-gradient);}.cls-7{fill:url(#radial-gradient-2);}.cls-8{fill:url(#radial-gradient-3);}.cls-9{fill:url(#radial-gradient-4);}.cls-10{fill:url(#radial-gradient-5);}.cls-11{fill:url(#radial-gradient-6);}.cls-12{fill:url(#linear-gradient);}.cls-13{fill:url(#radial-gradient-7);}.cls-14{stroke:#09f;}.cls-15{stroke:#ff7500;}</style><radialGradient id="radial-gradient" cx="0" cy="640" r="34.71" gradientTransform="matrix(1, 0, 0, -1, 225, 674.5)" gradientUnits="userSpaceOnUse"><stop offset="0" stop-color="#fff"/><stop offset="1"/></radialGradient><radialGradient id="radial-gradient-2" cx="0" cy="640" r="34.71" gradientTransform="matrix(1, 0, 0, -1, 225, 711.5)" gradientUnits="userSpaceOnUse"><stop offset="0" stop-color="#ff6"/><stop offset="1"/></radialGradient><radialGradient id="radial-gradient-3" cx="0" cy="640" r="34.71" gradientTransform="matrix(1, 0, 0, -1, 225, 785.5)" gradientUnits="userSpaceOnUse"><stop offset="0" stop-color="#0cf"/><stop offset="1"/></radialGradient><radialGradient id="radial-gradient-4" cx="0" cy="640" r="34.71" gradientTransform="matrix(1, 0, 0, -1, 225, 859.5)" gradientUnits="userSpaceOnUse"><stop offset="0" stop-color="#6f6"/><stop offset="1"/></radialGradient><radialGradient id="radial-gradient-5" cx="0" cy="640" r="34.71" gradientTransform="matrix(1, 0, 0, -1, 225, 896.5)" gradientUnits="userSpaceOnUse"><stop offset="0" stop-color="#ff7be8"/><stop offset="1"/></radialGradient><radialGradient id="radial-gradient-6" cx="0" cy="640" r="34.71" gradientTransform="matrix(1, 0, 0, -1, 225, 748.5)" gradientUnits="userSpaceOnUse"><stop offset="0" stop-color="#c90"/><stop offset="1"/></radialGradient><linearGradient id="linear-gradient" x1="232.05" y1="584.4" x2="232.05" y2="619.4" gradientTransform="matrix(1, 0, 0, -1, -7.05, 784.4)" gradientUnits="userSpaceOnUse"><stop offset="0" stop-color="#3b993b"/><stop offset="1" stop-color="#a67d00"/></linearGradient><radialGradient id="radial-gradient-7" cx="0" cy="640" r="34.71" gradientTransform="matrix(1, 0, 0, -1, 225, 822.5)" gradientUnits="userSpaceOnUse"><stop offset="0" stop-color="#fff" stop-opacity="0.7"/><stop offset="0.6" stop-color="#fff" stop-opacity="0"/></radialGradient></defs><title>deck_constructor2</title><g id="extra_area_mc" data-name="extra area mc"><g id="extra_area_mc_0_Layer0_0_FILL" data-name="extra area mc 0 Layer0 0 FILL"><path class="cls-1" d="M794,635V556.5H221q-5,0-5,5V630q0,5,5,5Z"/></g></g><g id="side_area_mc" data-name="side area mc"><g id="side_area_mc_0_Layer0_0_FILL" data-name="side area mc 0 Layer0 0 FILL"><path class="cls-2" d="M794,552.5V474H221q-5,0-5,5v68.5q0,5,5,5Z"/></g></g><g id="deck_area_mc" data-name="deck area mc"><g id="deck_area_mc_0_Layer0_0_FILL" data-name="deck area mc 0 Layer0 0 FILL"><path class="cls-3" d="M216,4q-10,0-10,10V460q0,10,10,10H794V4Z"/></g></g><g id="deck_slots_mc_0_Layer0_0_FILL" data-name="deck slots mc 0 Layer0 0 FILL"><path class="cls-4" d="M573,392.5H519V469h54V392.5M408,160H354v76.5h54V160m0,232.5H354V469h54V392.5m56-155V314h54V237.5H464m54,155H464V469h54V392.5m-55,0H409V469h54V392.5m1-77.5v76.5h54V315H464m-1,0H409v76.5h54V315m0-77.5H409V314h54V237.5M353,314V237.5H299V314h54m0,78.5H299V469h54V392.5m1-155V314h54V237.5H354m0,77.5v76.5h54V315H354m-55,0v76.5h54V315H299m-1,77.5H244V469h54V392.5m0-77.5H244v76.5h54V315m0-77.5H244V314h54V237.5M353,159V82.5H299V159h54m0,1H299v76.5h54V160m-55,0H244v76.5h54V160m0-78.5V5H244V81.5h54m0,1H244V159h54V82.5m55-1V5H299V81.5h54M518,159V82.5H464V159h54m0,1H464v76.5h54V160m-110-1V82.5H354V159h54m55,1H409v76.5h54V160M463,5H409V81.5h54V5m0,77.5H409V159h54V82.5m-55-1V5H354V81.5h54m110,0V5H464V81.5h54m55,155V160H519v76.5h54M738,160H684v76.5h54V160m0,232.5H684V469h54V392.5M793,315H739v76.5h54V315m0,77.5H739V469h54V392.5m0-155H739V314h54V237.5M683,314V237.5H629V314h54m0,78.5H629V469h54V392.5M573,314V237.5H519V314h54m111-76.5V314h54V237.5H684m0,77.5v76.5h54V315H684m-55,0v76.5h54V315H629m-56,76.5V315H519v76.5h54M628,315H574v76.5h54V315m0,77.5H574V469h54V392.5m0-155H574V314h54V237.5M683,159V82.5H629V159h54m0,1H629v76.5h54V160m-110-1V82.5H519V159h54m55,1H574v76.5h54V160M628,5H574V81.5h54V5m0,77.5H574V159h54V82.5m-55-1V5H519V81.5h54m110,0V5H629V81.5h54M738,159V82.5H684V159h54m55,1H739v76.5h54V160M793,5H739V81.5h54V5m0,77.5H739V159h54V82.5m-55-1V5H684V81.5Z"/></g><path id="deck_slots_mc_0_Layer0_0_1_STROKES" data-name="deck slots mc 0 Layer0 0 1 STROKES" class="cls-5" d="M738,81.5H684V5h54Zm55,1V159H739V82.5ZM793,5V81.5H739V5Zm0,155v76.5H739V160ZM738,82.5V159H684V82.5Zm-55-1H629V5h54Zm-110,0H519V5h54Zm55,1V159H574V82.5ZM628,5V81.5H574V5Zm0,155v76.5H574V160ZM573,82.5V159H519V82.5Zm110,154H629V160h54Zm0-77.5H629V82.5h54Zm-55,78.5V314H574V237.5Zm0,155V469H574V392.5Zm0-77.5v76.5H574V315Zm-109,0h54v76.5H519Zm164,76.5H629V315h54Zm1-76.5h54v76.5H684Zm54-77.5V314H684V237.5Zm-165,0V314H519V237.5ZM683,469H629V392.5h54Zm0-155H629V237.5h54Zm110-76.5V314H739V237.5Zm0,155V469H739V392.5Zm0-77.5v76.5H739V315Zm-55,77.5V469H684V392.5ZM738,160v76.5H684V160Zm-165,0v76.5H519V160ZM518,81.5H464V5h54Zm-110,0H354V5h54Zm55,1V159H409V82.5ZM463,5V81.5H409V5Zm0,155v76.5H409V160ZM408,82.5V159H354V82.5ZM518,160v76.5H464V160Zm0-1H464V82.5h54ZM353,81.5H299V5h54Zm-55,1V159H244V82.5Zm0-1H244V5h54Zm0,78.5v76.5H244V160Zm55,76.5H299V160h54Zm0-77.5H299V82.5h54Zm-55,78.5V314H244V237.5Zm0,77.5v76.5H244V315Zm0,77.5V469H244V392.5Zm55-1H299V315h54Zm1-76.5h54v76.5H354Zm54-77.5V314H354V237.5Zm-55,155V469H299V392.5Zm0-78.5H299V237.5h54Zm110-76.5V314H409V237.5Zm0,77.5v76.5H409V315Zm1,0h54v76.5H464Zm-1,77.5V469H409V392.5Zm55,0V469H464V392.5Zm-54-155h54V314H464Zm-56,155V469H354V392.5ZM408,160v76.5H354V160ZM573,392.5V469H519V392.5Z"/><g id="Layer2_4_FILL" data-name="Layer2 4 FILL"><path class="cls-6" d="M242.5,22q0-5-5-5h-25q-5,0-5,5V47q0,5,5,5h25q5,0,5-5Z"/></g><g id="Layer2_5_FILL" data-name="Layer2 5 FILL"><path class="cls-7" d="M242.5,59q0-5-5-5h-25q-5,0-5,5V84q0,5,5,5h25q5,0,5-5Z"/></g><g id="Layer2_6_FILL" data-name="Layer2 6 FILL"><path class="cls-8" d="M242.5,133q0-5-5-5h-25q-5,0-5,5v25q0,5,5,5h25q5,0,5-5Z"/></g><g id="Layer2_7_FILL" data-name="Layer2 7 FILL"><path class="cls-9" d="M242.5,207q0-5-5-5h-25q-5,0-5,5v25q0,5,5,5h25q5,0,5-5Z"/></g><g id="Layer2_8_FILL" data-name="Layer2 8 FILL"><path class="cls-10" d="M242.5,244q0-5-5-5h-25q-5,0-5,5v25q0,5,5,5h25q5,0,5-5Z"/></g><g id="Layer2_9_FILL" data-name="Layer2 9 FILL"><path class="cls-11" d="M242.5,96q0-5-5-5h-25q-5,0-5,5v25q0,5,5,5h25q5,0,5-5Z"/></g><g id="Layer2_10_FILL" data-name="Layer2 10 FILL"><path class="cls-12" d="M242.5,170q0-5-5-5h-25q-5,0-5,5v25q0,5,5,5h25q5,0,5-5Z"/></g><g id="Layer2_11_FILL" data-name="Layer2 11 FILL"><path class="cls-13" d="M242.5,170q0-5-5-5h-25q-5,0-5,5v25q0,5,5,5h25q5,0,5-5Z"/></g><g id="extra_slots_0_Layer29_0_FILL" data-name="extra slots 0 Layer29 0 FILL"><path class="cls-4" d="M280,487.75H244v51h36Z"/></g><path id="extra_slots_0_Layer29_0_1_STROKES" data-name="extra slots 0 Layer29 0 1 STROKES" class="cls-14" d="M280,487.75v51H244v-51Z"/><g id="extra_slots_0_Layer28_0_FILL" data-name="extra slots 0 Layer28 0 FILL"><path class="cls-4" d="M316.65,487.75h-36v51h36Z"/></g><path id="extra_slots_0_Layer28_0_1_STROKES" data-name="extra slots 0 Layer28 0 1 STROKES" class="cls-14" d="M316.65,487.75v51h-36v-51Z"/><g id="extra_slots_0_Layer27_0_FILL" data-name="extra slots 0 Layer27 0 FILL"><path class="cls-4" d="M317.3,487.75v51h36v-51Z"/></g><path id="extra_slots_0_Layer27_0_1_STROKES" data-name="extra slots 0 Layer27 0 1 STROKES" class="cls-14" d="M317.3,487.75h36v51h-36Z"/><g id="extra_slots_0_Layer26_0_FILL" data-name="extra slots 0 Layer26 0 FILL"><path class="cls-4" d="M389.9,487.75h-36v51h36Z"/></g><path id="extra_slots_0_Layer26_0_1_STROKES" data-name="extra slots 0 Layer26 0 1 STROKES" class="cls-14" d="M389.9,487.75v51h-36v-51Z"/><g id="extra_slots_0_Layer25_0_FILL" data-name="extra slots 0 Layer25 0 FILL"><path class="cls-4" d="M426.55,538.75v-51h-36v51Z"/></g><path id="extra_slots_0_Layer25_0_1_STROKES" data-name="extra slots 0 Layer25 0 1 STROKES" class="cls-14" d="M426.55,538.75h-36v-51h36Z"/><g id="extra_slots_0_Layer24_0_FILL" data-name="extra slots 0 Layer24 0 FILL"><path class="cls-4" d="M463.2,487.75h-36v51h36Z"/></g><path id="extra_slots_0_Layer24_0_1_STROKES" data-name="extra slots 0 Layer24 0 1 STROKES" class="cls-14" d="M463.2,487.75v51h-36v-51Z"/><g id="extra_slots_0_Layer23_0_FILL" data-name="extra slots 0 Layer23 0 FILL"><path class="cls-4" d="M499.85,538.75v-51h-36v51Z"/></g><path id="extra_slots_0_Layer23_0_1_STROKES" data-name="extra slots 0 Layer23 0 1 STROKES" class="cls-14" d="M499.85,538.75h-36v-51h36Z"/><g id="extra_slots_0_Layer22_0_FILL" data-name="extra slots 0 Layer22 0 FILL"><path class="cls-4" d="M536.5,487.75h-36v51h36Z"/></g><path id="extra_slots_0_Layer22_0_1_STROKES" data-name="extra slots 0 Layer22 0 1 STROKES" class="cls-14" d="M536.5,487.75v51h-36v-51Z"/><g id="extra_slots_0_Layer21_0_FILL" data-name="extra slots 0 Layer21 0 FILL"><path class="cls-4" d="M573.15,538.75v-51h-36v51Z"/></g><path id="extra_slots_0_Layer21_0_1_STROKES" data-name="extra slots 0 Layer21 0 1 STROKES" class="cls-14" d="M573.15,538.75h-36v-51h36Z"/><g id="extra_slots_0_Layer20_0_FILL" data-name="extra slots 0 Layer20 0 FILL"><path class="cls-4" d="M609.8,487.75h-36v51h36Z"/></g><path id="extra_slots_0_Layer20_0_1_STROKES" data-name="extra slots 0 Layer20 0 1 STROKES" class="cls-14" d="M609.8,487.75v51h-36v-51Z"/><g id="extra_slots_0_Layer19_0_FILL" data-name="extra slots 0 Layer19 0 FILL"><path class="cls-4" d="M646.45,487.75h-36v51h36Z"/></g><path id="extra_slots_0_Layer19_0_1_STROKES" data-name="extra slots 0 Layer19 0 1 STROKES" class="cls-14" d="M646.45,487.75v51h-36v-51Z"/><g id="extra_slots_0_Layer18_0_FILL" data-name="extra slots 0 Layer18 0 FILL"><path class="cls-4" d="M683.05,538.75v-51h-36v51Z"/></g><path id="extra_slots_0_Layer18_0_1_STROKES" data-name="extra slots 0 Layer18 0 1 STROKES" class="cls-14" d="M683.05,538.75h-36v-51h36Z"/><g id="extra_slots_0_Layer17_0_FILL" data-name="extra slots 0 Layer17 0 FILL"><path class="cls-4" d="M719.7,487.75h-36v51h36Z"/></g><path id="extra_slots_0_Layer17_0_1_STROKES" data-name="extra slots 0 Layer17 0 1 STROKES" class="cls-14" d="M719.7,487.75v51h-36v-51Z"/><g id="extra_slots_0_Layer16_0_FILL" data-name="extra slots 0 Layer16 0 FILL"><path class="cls-4" d="M756.35,538.75v-51h-36v51Z"/></g><path id="extra_slots_0_Layer16_0_1_STROKES" data-name="extra slots 0 Layer16 0 1 STROKES" class="cls-14" d="M756.35,538.75h-36v-51h36Z"/><g id="extra_slots_0_Layer15_0_FILL" data-name="extra slots 0 Layer15 0 FILL"><path class="cls-4" d="M793,487.75H757v51h36Z"/></g><path id="extra_slots_0_Layer15_0_1_STROKES" data-name="extra slots 0 Layer15 0 1 STROKES" class="cls-14" d="M793,487.75v51H757v-51Z"/><g id="extra_slots_0_Layer14_0_FILL" data-name="extra slots 0 Layer14 0 FILL"><path class="cls-4" d="M280,570.25H244v51h36Z"/></g><path id="extra_slots_0_Layer14_0_1_STROKES" data-name="extra slots 0 Layer14 0 1 STROKES" class="cls-15" d="M280,570.25v51H244v-51Z"/><g id="extra_slots_0_Layer13_0_FILL" data-name="extra slots 0 Layer13 0 FILL"><path class="cls-4" d="M316.65,570.25h-36v51h36Z"/></g><path id="extra_slots_0_Layer13_0_1_STROKES" data-name="extra slots 0 Layer13 0 1 STROKES" class="cls-15" d="M316.65,570.25v51h-36v-51Z"/><g id="extra_slots_0_Layer12_0_FILL" data-name="extra slots 0 Layer12 0 FILL"><path class="cls-4" d="M317.3,570.25v51h36v-51Z"/></g><path id="extra_slots_0_Layer12_0_1_STROKES" data-name="extra slots 0 Layer12 0 1 STROKES" class="cls-15" d="M317.3,570.25h36v51h-36Z"/><g id="extra_slots_0_Layer11_0_FILL" data-name="extra slots 0 Layer11 0 FILL"><path class="cls-4" d="M389.9,570.25h-36v51h36Z"/></g><path id="extra_slots_0_Layer11_0_1_STROKES" data-name="extra slots 0 Layer11 0 1 STROKES" class="cls-15" d="M389.9,570.25v51h-36v-51Z"/><g id="extra_slots_0_Layer10_0_FILL" data-name="extra slots 0 Layer10 0 FILL"><path class="cls-4" d="M426.55,570.25h-36v51h36Z"/></g><path id="extra_slots_0_Layer10_0_1_STROKES" data-name="extra slots 0 Layer10 0 1 STROKES" class="cls-15" d="M426.55,570.25v51h-36v-51Z"/><g id="extra_slots_0_Layer9_0_FILL" data-name="extra slots 0 Layer9 0 FILL"><path class="cls-4" d="M463.2,570.25h-36v51h36Z"/></g><path id="extra_slots_0_Layer9_0_1_STROKES" data-name="extra slots 0 Layer9 0 1 STROKES" class="cls-15" d="M463.2,570.25v51h-36v-51Z"/><g id="extra_slots_0_Layer8_0_FILL" data-name="extra slots 0 Layer8 0 FILL"><path class="cls-4" d="M499.85,621.25v-51h-36v51Z"/></g><path id="extra_slots_0_Layer8_0_1_STROKES" data-name="extra slots 0 Layer8 0 1 STROKES" class="cls-15" d="M499.85,621.25h-36v-51h36Z"/><g id="extra_slots_0_Layer7_0_FILL" data-name="extra slots 0 Layer7 0 FILL"><path class="cls-4" d="M536.5,570.25h-36v51h36Z"/></g><path id="extra_slots_0_Layer7_0_1_STROKES" data-name="extra slots 0 Layer7 0 1 STROKES" class="cls-15" d="M536.5,570.25v51h-36v-51Z"/><g id="extra_slots_0_Layer6_0_FILL" data-name="extra slots 0 Layer6 0 FILL"><path class="cls-4" d="M573.15,570.25h-36v51h36Z"/></g><path id="extra_slots_0_Layer6_0_1_STROKES" data-name="extra slots 0 Layer6 0 1 STROKES" class="cls-15" d="M573.15,570.25v51h-36v-51Z"/><g id="extra_slots_0_Layer5_0_FILL" data-name="extra slots 0 Layer5 0 FILL"><path class="cls-4" d="M609.8,570.25h-36v51h36Z"/></g><path id="extra_slots_0_Layer5_0_1_STROKES" data-name="extra slots 0 Layer5 0 1 STROKES" class="cls-15" d="M609.8,570.25v51h-36v-51Z"/><g id="extra_slots_0_Layer4_0_FILL" data-name="extra slots 0 Layer4 0 FILL"><path class="cls-4" d="M646.45,570.25h-36v51h36Z"/></g><path id="extra_slots_0_Layer4_0_1_STROKES" data-name="extra slots 0 Layer4 0 1 STROKES" class="cls-15" d="M646.45,570.25v51h-36v-51Z"/><g id="extra_slots_0_Layer3_0_FILL" data-name="extra slots 0 Layer3 0 FILL"><path class="cls-4" d="M683.05,621.25v-51h-36v51Z"/></g><path id="extra_slots_0_Layer3_0_1_STROKES" data-name="extra slots 0 Layer3 0 1 STROKES" class="cls-15" d="M683.05,621.25h-36v-51h36Z"/><g id="extra_slots_0_Layer2_0_FILL" data-name="extra slots 0 Layer2 0 FILL"><path class="cls-4" d="M719.7,570.25h-36v51h36Z"/></g><path id="extra_slots_0_Layer2_0_1_STROKES" data-name="extra slots 0 Layer2 0 1 STROKES" class="cls-15" d="M719.7,570.25v51h-36v-51Z"/><g id="extra_slots_0_Layer1_0_FILL" data-name="extra slots 0 Layer1 0 FILL"><path class="cls-4" d="M756.35,570.25h-36v51h36Z"/></g><path id="extra_slots_0_Layer1_0_1_STROKES" data-name="extra slots 0 Layer1 0 1 STROKES" class="cls-15" d="M756.35,570.25v51h-36v-51Z"/><g id="extra_slots_0_Layer0_0_FILL" data-name="extra slots 0 Layer0 0 FILL"><path class="cls-4" d="M793,570.25H757v51h36Z"/></g><path id="extra_slots_0_Layer0_0_1_STROKES" data-name="extra slots 0 Layer0 0 1 STROKES" class="cls-15" d="M793,570.25v51H757v-51Z"/><g id="Layer0_0_FILL" data-name="Layer0 0 FILL"><path class="cls-16" d="M236.6,522.75V519.6H222.3v3.15h14.3M226.2,504.3a5.81,5.81,0,0,0-2.3,1.45,5.39,5.39,0,0,0-1.35,2.35,12.54,12.54,0,0,0-.25,2.9v5.7h14.3v-5.85a10,10,0,0,0-.3-2.75,5.32,5.32,0,0,0-1.15-2.2,6.43,6.43,0,0,0-2.5-1.65,9.33,9.33,0,0,0-3.05-.45,10,10,0,0,0-3.4.5m3.25,2.7a9.52,9.52,0,0,1,2.65.3,3.36,3.36,0,0,1,1.35.8,2.62,2.62,0,0,1,.6,1.3,7.9,7.9,0,0,1,.15,1.85v2.35h-9.5v-1.4a13.74,13.74,0,0,1,.15-2.55,2.82,2.82,0,0,1,.65-1.45,3.53,3.53,0,0,1,1.4-.9,8.44,8.44,0,0,1,2.55-.3m7.15-17.55h-2.4v8.6h-3.9v-7.7h-2.4v7.7h-3.2v-8.3h-2.4V501.2h14.3V489.45M222.05,531.6a8.12,8.12,0,0,0,.5,3,4,4,0,0,0,1.45,1.95,3.58,3.58,0,0,0,4.9-.75,8.71,8.71,0,0,0,1.45-3.5l.6-2.5a2.49,2.49,0,0,1,.65-1.15,1.26,1.26,0,0,1,.85-.3,1.76,1.76,0,0,1,1.4.75,4,4,0,0,1,.55,2.3,3.64,3.64,0,0,1-.65,2.25,3.52,3.52,0,0,1-2.1,1.1l.3,3a5.32,5.32,0,0,0,3.65-1.85,7,7,0,0,0,1.25-4.5,9.81,9.81,0,0,0-.5-3.35,4.39,4.39,0,0,0-1.6-2,4,4,0,0,0-2.3-.75,4.07,4.07,0,0,0-2.3.6,4.82,4.82,0,0,0-1.45,1.7,15,15,0,0,0-1,3.35,9,9,0,0,1-1,2.9,1,1,0,0,1-.85.45,1.06,1.06,0,0,1-.9-.5,3.91,3.91,0,0,1-.5-2.15,3.43,3.43,0,0,1,.45-2,2.48,2.48,0,0,1,1.6-.85l-.1-3.1a4.07,4.07,0,0,0-3.2,1.5,7.13,7.13,0,0,0-1.15,4.4m-8-146.1v4.6H237v-4.6h-6.9l-3.85-3.75,10.75-6.3v-6l-14,9.1-8.9-8.65v6.25l10.15,9.35H214.05m23.3,18.15a9.88,9.88,0,0,0-1.8-6.1,10.07,10.07,0,0,0-5.6-3.4l-1.4,4.45a6.86,6.86,0,0,1,3.65,1.9,4.66,4.66,0,0,1,1.2,3.2,5,5,0,0,1-1.85,4.05q-1.85,1.54-6.2,1.55-4.09,0-5.9-1.55a5.24,5.24,0,0,1-1.85-4.15,4.87,4.87,0,0,1,1.05-3.15,5,5,0,0,1,2.8-1.7l-1.1-4.55a9.12,9.12,0,0,0-4.2,2.35,9.38,9.38,0,0,0-2.5,6.8,10.13,10.13,0,0,0,3.2,7.8q3.15,3,8.85,3,5.4,0,8.55-3a9.9,9.9,0,0,0,3.1-7.5m-10.5,14.8H223V430h-5.1V417.6h-3.85v16.95H237v-17.4H233.1V430h-6.25v-11.5m-6.55,20.8a10.14,10.14,0,0,0-3.7,2.15,7.84,7.84,0,0,0-2.1,3.5,16,16,0,0,0-.45,4.35v8.45H237V449a13.54,13.54,0,0,0-.5-4.1,8.09,8.09,0,0,0-1.8-3.25,10,10,0,0,0-4.05-2.45,15.15,15.15,0,0,0-4.9-.7,16.91,16.91,0,0,0-5.4.75m-1.1,5.8a5,5,0,0,1,2.25-1.3,12.71,12.71,0,0,1,4.05-.5,14.23,14.23,0,0,1,4.2.5,4.54,4.54,0,0,1,2.2,1.2,3.94,3.94,0,0,1,.95,1.85,10.89,10.89,0,0,1,.25,2.8v3.45H217.9V451a18,18,0,0,1,.25-3.8,4.27,4.27,0,0,1,1-2.15M236.6,562.5v-3.4l-14.3,6.15v3.3l14.3,6v-3.3L233.35,570v-6.2l3.25-1.3M231,569l-5.35-2L231,564.8V569m-8.65,13v6.5h14.3v-3.1h-6v-.6a4.74,4.74,0,0,1,.2-1.6,2,2,0,0,1,.6-.9,15.92,15.92,0,0,1,2.1-1.65l3.1-2.25V574.6l-2.8,1.9a16.14,16.14,0,0,0-2.3,1.75,8.79,8.79,0,0,0-1.2,1.7A5.1,5.1,0,0,0,229,576.9a3.59,3.59,0,0,0-2.65-1,3.82,3.82,0,0,0-2.25.7,3.4,3.4,0,0,0-1.4,1.8,13.21,13.21,0,0,0-.35,3.6m2.45-1.3a1.82,1.82,0,0,1,.55-1.15,2,2,0,0,1,2.25-.1,1.43,1.43,0,0,1,.6.85,11.43,11.43,0,0,1,.2,2.8v2.3H224.7l.05-4.7m-.05,9.8h-2.4V602.7h2.4v-4.6h11.9V595H224.7v-4.55m11.9,27v-3.75l-4.95-3.4,4.95-3.4V603.2l-7.35,5.25-6.95-4.8v3.6l4.6,3-4.6,3.05V617l6.85-4.75,7.45,5.25m0,1h-2.4v8.6h-3.9v-7.7h-2.4v7.7h-3.2v-8.3h-2.4v11.45h14.3Z"/></g></svg>