<?xml version="1.0" encoding="utf-8"?>
<!-- Generator: Adobe Illustrator 25.2.1, SVG Export Plug-In . SVG Version: 6.00 Build 0)  -->
<svg version="1.1" xmlns="http://www.w3.org/2000/svg" xmlns:xlink="http://www.w3.org/1999/xlink" x="0px" y="0px"
	 viewBox="0 0 1024 640" style="enable-background:new 0 0 1024 640;" xml:space="preserve">
<style type="text/css">
	.st0{display:none;}
	.st1{display:inline;}
	.st2{fill-opacity:0.3;}
	.st3{fill:#0066FF;fill-opacity:0;}
	
		.st4{fill:none;stroke:url(#field_zones4_mc_0_Layer8_0_1_STROKES_1_);stroke-width:2.5;stroke-linecap:round;stroke-linejoin:round;}
	
		.st5{fill:none;stroke:url(#field_zones4_mc_0_Layer8_0_2_STROKES_1_);stroke-width:2.5;stroke-linecap:round;stroke-linejoin:round;}
	
		.st6{fill:none;stroke:url(#field_zones4_mc_0_Layer8_0_3_STROKES_1_);stroke-width:2.5;stroke-linecap:round;stroke-linejoin:round;}
	
		.st7{fill:none;stroke:url(#field_zones4_mc_0_Layer8_0_4_STROKES_1_);stroke-width:2.5;stroke-linecap:round;stroke-linejoin:round;}
	
		.st8{fill:none;stroke:url(#field_zones4_mc_0_Layer8_0_5_STROKES_1_);stroke-width:2.5;stroke-linecap:round;stroke-linejoin:round;}
	
		.st9{fill:none;stroke:url(#field_zones4_mc_0_Layer8_0_6_STROKES_1_);stroke-width:2.5;stroke-linecap:round;stroke-linejoin:round;}
	
		.st10{fill:none;stroke:url(#field_zones4_mc_0_Layer8_0_7_STROKES_1_);stroke-width:2.5;stroke-linecap:round;stroke-linejoin:round;}
	
		.st11{fill:none;stroke:url(#field_zones4_mc_0_Layer8_0_8_STROKES_1_);stroke-width:2.5;stroke-linecap:round;stroke-linejoin:round;}
	
		.st12{fill:none;stroke:url(#field_zones4_mc_0_Layer8_0_9_STROKES_1_);stroke-width:2.5;stroke-linecap:round;stroke-linejoin:round;}
	
		.st13{fill:none;stroke:url(#field_zones4_mc_0_Layer8_0_10_STROKES_1_);stroke-width:2.5;stroke-linecap:round;stroke-linejoin:round;}
</style>
<g id="Layer_1" class="st0">
	<g id="field_zones_mc" class="st1">
		<g id="field_zones4_mc_0_Layer10_0_FILL">
			<path class="st2" d="M387,432c-4,0-6,2-6,6v79c0,4,2,6,6,6h79c4,0,6-2,6-6v-79c0-4-2-6-6-6H387 M472,345c0-4-2-6-6-6h-79
				c-4,0-6,2-6,6v79c0,4,2,6,6,6h79c4,0,6-2,6-6V345 M294,432c-4,0-6,2-6,6v79c0,4,2,6,6,6h79c4,0,6-2,6-6v-79c0-4-2-6-6-6H294
				 M227.5,339c-4,0-6,2-6,6v79c0,4,2,6,6,6h52c4,0,6-2,6-6v-79c0-4-2-6-6-6H227.5 M294,339c-4,0-6,2-6,6v79c0,4,2,6,6,6h79
				c4,0,6-2,6-6v-79c0-4-2-6-6-6H294 M213,246c-4,0-6,2-6,6v79c0,4,2,6,6,6h52c4,0,6-2,6-6v-79c0-4-2-6-6-6H213 M279.5,153h-52
				c-4,0-6,2-6,6v79c0,4,2,6,6,6h52c4,0,6-2,6-6v-79C285.5,155,283.5,153,279.5,153 M381,238c0,4,2,6,6,6h79c4,0,6-2,6-6v-79
				c0-4-2-6-6-6h-79c-4,0-6,2-6,6V238 M373,244c4,0,6-2,6-6v-79c0-4-2-6-6-6h-79c-4,0-6,2-6,6v79c0,4,2,6,6,6H373 M387,246
				c-4,0-6,2-6,6v79c0,4,2,6,6,6h79c4,0,6-2,6-6v-79c0-4-2-6-6-6H387 M379,66c0-4-2-6-6-6h-79c-4,0-6,2-6,6v79c0,4,2,6,6,6h79
				c4,0,6-2,6-6V66 M472,66c0-4-2-6-6-6h-79c-4,0-6,2-6,6v79c0,4,2,6,6,6h79c4,0,6-2,6-6V66 M817.5,345c0-4-2-6-6-6h-52
				c-4,0-6,2-6,6v79c0,4,2,6,6,6h52c4,0,6-2,6-6V345 M666,432c-4,0-6,2-6,6v79c0,4,2,6,6,6h79c4,0,6-2,6-6v-79c0-4-2-6-6-6H666
				 M573,432c-4,0-6,2-6,6v79c0,4,2,6,6,6h79c4,0,6-2,6-6v-79c0-4-2-6-6-6H573 M565,438c0-4-2-6-6-6h-79c-4,0-6,2-6,6v79
				c0,4,2,6,6,6h79c4,0,6-2,6-6V438 M565,345c0-4-2-6-6-6h-79c-4,0-6,2-6,6v79c0,4,2,6,6,6h79c4,0,6-2,6-6V345 M658,345c0-4-2-6-6-6
				h-79c-4,0-6,2-6,6v79c0,4,2,6,6,6h79c4,0,6-2,6-6V345 M666,339c-4,0-6,2-6,6v79c0,4,2,6,6,6h79c4,0,6-2,6-6v-79c0-4-2-6-6-6H666
				 M567,238c0,4,2,6,6,6h79c4,0,6-2,6-6v-79c0-4-2-6-6-6h-79c-4,0-6,2-6,6V238 M573,246c-4,0-6,2-6,6v79c0,4,2,6,6,6h79
				c4,0,6-2,6-6v-79c0-4-2-6-6-6H573 M559,244c4,0,6-2,6-6v-79c0-4-2-6-6-6h-79c-4,0-6,2-6,6v79c0,4,2,6,6,6H559 M565,66
				c0-4-2-6-6-6h-79c-4,0-6,2-6,6v79c0,4,2,6,6,6h79c4,0,6-2,6-6V66 M658,66c0-4-2-6-6-6h-79c-4,0-6,2-6,6v79c0,4,2,6,6,6h79
				c4,0,6-2,6-6V66 M833,252c0-4-2-6-6-6h-52c-4,0-6,2-6,6v79c0,4,2,6,6,6h52c4,0,6-2,6-6V252 M753.5,238c0,4,2,6,6,6h52
				c4,0,6-2,6-6v-79c0-4-2-6-6-6h-52c-4,0-6,2-6,6V238 M745,244c4,0,6-2,6-6v-79c0-4-2-6-6-6h-79c-4,0-6,2-6,6v79c0,4,2,6,6,6H745
				 M751,66c0-4-2-6-6-6h-79c-4,0-6,2-6,6v79c0,4,2,6,6,6h79c4,0,6-2,6-6V66z"/>
		</g>
		<g id="field_spell_pic_mc">
			<g id="field_spell_pic_mc_0_Layer0_0_FILL">
				<path class="st3" d="M751,523V60H288v463H751z"/>
			</g>
		</g>
		
			<linearGradient id="field_zones4_mc_0_Layer8_0_1_STROKES_1_" gradientUnits="userSpaceOnUse" x1="-0.65" y1="532" x2="626.65" y2="532" gradientTransform="matrix(1 0 0 1 207 -380)">
			<stop  offset="0" style="stop-color:#00B400"/>
			<stop  offset="1" style="stop-color:#FF8F00"/>
		</linearGradient>
		<path id="field_zones4_mc_0_Layer8_0_1_STROKES" class="st4" d="M745,60h-79c-4,0-6,2-6,6v79c0,4,2,6,6,6h79c4,0,6-2,6-6V66
			C751,62,749,60,745,60z M660,159v79c0,4,2,6,6,6h79c4,0,6-2,6-6v-79c0-4-2-6-6-6h-79C662,153,660,155,660,159z M652,60h-79
			c-4,0-6,2-6,6v79c0,4,2,6,6,6h79c4,0,6-2,6-6V66C658,62,656,60,652,60z M559,60h-79c-4,0-6,2-6,6v79c0,4,2,6,6,6h79c4,0,6-2,6-6
			V66C565,62,563,60,559,60z M559,153h-79c-4,0-6,2-6,6v79c0,4,2,6,6,6h79c4,0,6-2,6-6v-79C565,155,563,153,559,153z M652,153h-79
			c-4,0-6,2-6,6v79c0,4,2,6,6,6h79c4,0,6-2,6-6v-79C658,155,656,153,652,153z M466,60h-79c-4,0-6,2-6,6v79c0,4,2,6,6,6h79
			c4,0,6-2,6-6V66C472,62,470,60,466,60z M373,60h-79c-4,0-6,2-6,6v79c0,4,2,6,6,6h79c4,0,6-2,6-6V66C379,62,377,60,373,60z
			 M381,159v79c0,4,2,6,6,6h79c4,0,6-2,6-6v-79c0-4-2-6-6-6h-79C383,153,381,155,381,159z M373,153h-79c-4,0-6,2-6,6v79c0,4,2,6,6,6
			h79c4,0,6-2,6-6v-79C379,155,377,153,373,153z"/>
		
			<linearGradient id="field_zones4_mc_0_Layer8_0_2_STROKES_1_" gradientUnits="userSpaceOnUse" x1="-0.65" y1="811" x2="626.65" y2="811" gradientTransform="matrix(1 0 0 1 207 -380)">
			<stop  offset="0" style="stop-color:#FF0000"/>
			<stop  offset="1" style="stop-color:#9900FF"/>
		</linearGradient>
		<path id="field_zones4_mc_0_Layer8_0_2_STROKES" class="st5" d="M660,345v79c0,4,2,6,6,6h79c4,0,6-2,6-6v-79c0-4-2-6-6-6h-79
			C662,339,660,341,660,345z M652,339h-79c-4,0-6,2-6,6v79c0,4,2,6,6,6h79c4,0,6-2,6-6v-79C658,341,656,339,652,339z M474,345v79
			c0,4,2,6,6,6h79c4,0,6-2,6-6v-79c0-4-2-6-6-6h-79C476,339,474,341,474,345z M559,432h-79c-4,0-6,2-6,6v79c0,4,2,6,6,6h79
			c4,0,6-2,6-6v-79C565,434,563,432,559,432z M652,432h-79c-4,0-6,2-6,6v79c0,4,2,6,6,6h79c4,0,6-2,6-6v-79C658,434,656,432,652,432
			z M745,432h-79c-4,0-6,2-6,6v79c0,4,2,6,6,6h79c4,0,6-2,6-6v-79C751,434,749,432,745,432z M373,339h-79c-4,0-6,2-6,6v79
			c0,4,2,6,6,6h79c4,0,6-2,6-6v-79C379,341,377,339,373,339z M288,438v79c0,4,2,6,6,6h79c4,0,6-2,6-6v-79c0-4-2-6-6-6h-79
			C290,432,288,434,288,438z M381,345v79c0,4,2,6,6,6h79c4,0,6-2,6-6v-79c0-4-2-6-6-6h-79C383,339,381,341,381,345z M466,432h-79
			c-4,0-6,2-6,6v79c0,4,2,6,6,6h79c4,0,6-2,6-6v-79C472,434,470,432,466,432z"/>
		
			<linearGradient id="field_zones4_mc_0_Layer8_0_3_STROKES_1_" gradientUnits="userSpaceOnUse" x1="-16.15" y1="764.5" x2="611.15" y2="764.5" gradientTransform="matrix(1 0 0 1 207 -380)">
			<stop  offset="0" style="stop-color:#FF0000"/>
			<stop  offset="1" style="stop-color:#9900FF"/>
		</linearGradient>
		<path id="field_zones4_mc_0_Layer8_0_3_STROKES" class="st6" d="M811.5,339h-52c-4,0-6,2-6,6v79c0,4,2,6,6,6h52c4,0,6-2,6-6v-79
			C817.5,341,815.5,339,811.5,339z"/>
		
			<linearGradient id="field_zones4_mc_0_Layer8_0_4_STROKES_1_" gradientUnits="userSpaceOnUse" x1="13.85" y1="764.5" x2="641.15" y2="764.5" gradientTransform="matrix(1 0 0 1 207 -380)">
			<stop  offset="0" style="stop-color:#FF0000"/>
			<stop  offset="1" style="stop-color:#9900FF"/>
		</linearGradient>
		<path id="field_zones4_mc_0_Layer8_0_4_STROKES" class="st7" d="M227.5,430h52c4,0,6-2,6-6v-79c0-4-2-6-6-6h-52c-4,0-6,2-6,6v79
			C221.5,428,223.5,430,227.5,430z"/>
		
			<linearGradient id="field_zones4_mc_0_Layer8_0_5_STROKES_1_" gradientUnits="userSpaceOnUse" x1="-16.15" y1="578.5" x2="611.15" y2="578.5" gradientTransform="matrix(1 0 0 1 207 -380)">
			<stop  offset="0" style="stop-color:#00B400"/>
			<stop  offset="1" style="stop-color:#FF8F00"/>
		</linearGradient>
		<path id="field_zones4_mc_0_Layer8_0_5_STROKES" class="st8" d="M753.5,238c0,4,2,6,6,6h52c4,0,6-2,6-6v-79c0-4-2-6-6-6h-52
			c-4,0-6,2-6,6V238z"/>
		
			<linearGradient id="field_zones4_mc_0_Layer8_0_6_STROKES_1_" gradientUnits="userSpaceOnUse" x1="-53.15" y1="578.5" x2="574.15" y2="578.5" gradientTransform="matrix(1 0 0 1 207 -380)">
			<stop  offset="0" style="stop-color:#00B400"/>
			<stop  offset="1" style="stop-color:#FF8F00"/>
		</linearGradient>
		<path id="field_zones4_mc_0_Layer8_0_6_STROKES" class="st9" d="M279.5,153h-52c-4,0-6,2-6,6v79c0,4,2,6,6,6h52c4,0,6-2,6-6v-79
			C285.5,155,283.5,153,279.5,153z"/>
		
			<linearGradient id="field_zones4_mc_0_Layer8_0_7_STROKES_1_" gradientUnits="userSpaceOnUse" x1="-0.65" y1="671.5" x2="626.65" y2="671.5" gradientTransform="matrix(1 0 0 1 207 -380)">
			<stop  offset="0" style="stop-color:#00B400"/>
			<stop  offset="1" style="stop-color:#FF8F00"/>
		</linearGradient>
		<path id="field_zones4_mc_0_Layer8_0_7_STROKES" class="st10" d="M381,252v79c0,4,2,6,6,6h79c4,0,6-2,6-6v-79c0-4-2-6-6-6h-79
			C383,246,381,248,381,252z"/>
		
			<linearGradient id="field_zones4_mc_0_Layer8_0_8_STROKES_1_" gradientUnits="userSpaceOnUse" x1="-0.65" y1="671.5" x2="626.65" y2="671.5" gradientTransform="matrix(1 0 0 1 207 -380)">
			<stop  offset="0" style="stop-color:#FF0000"/>
			<stop  offset="1" style="stop-color:#9900FF"/>
		</linearGradient>
		<path id="field_zones4_mc_0_Layer8_0_8_STROKES" class="st11" d="M652,246h-79c-4,0-6,2-6,6v79c0,4,2,6,6,6h79c4,0,6-2,6-6v-79
			C658,248,656,246,652,246z"/>
		
			<linearGradient id="field_zones4_mc_0_Layer8_0_9_STROKES_1_" gradientUnits="userSpaceOnUse" x1="-1.25" y1="671.5" x2="627.25" y2="671.5" gradientTransform="matrix(1 0 0 1 207 -380)">
			<stop  offset="0" style="stop-color:#00B400"/>
			<stop  offset="1" style="stop-color:#FF8B00"/>
		</linearGradient>
		<path id="field_zones4_mc_0_Layer8_0_9_STROKES" class="st12" d="M265,246h-52c-4,0-6,2-6,6v79c0,4,2,6,6,6h52c4,0,6-2,6-6v-79
			C271,248,269,246,265,246z"/>
		
			<linearGradient id="field_zones4_mc_0_Layer8_0_10_STROKES_1_" gradientUnits="userSpaceOnUse" x1="-1.25" y1="671.5" x2="627.25" y2="671.5" gradientTransform="matrix(1 0 0 1 207 -380)">
			<stop  offset="0" style="stop-color:#FF0000"/>
			<stop  offset="1" style="stop-color:#9900FF"/>
		</linearGradient>
		<path id="field_zones4_mc_0_Layer8_0_10_STROKES" class="st13" d="M827,246h-52c-4,0-6,2-6,6v79c0,4,2,6,6,6h52c4,0,6-2,6-6v-79
			C833,248,831,246,827,246z"/>
		<g>
			<g>
				<g id="red_pendulum_scale_png" transform="translate(680 458)">
					
						<image style="overflow:visible;enable-background:new    ;" width="50" height="38" id="image-2" xlink:href="87A352F2.png"  transform="matrix(1 0 0 1 680 458)">
					</image>
				</g>
			</g>
		</g>
		<g>
			<g>
				<g id="blue_pendulum_scale_png" transform="translate(308 458)">
					
						<image style="overflow:visible;enable-background:new    ;" width="50" height="38" id="image" xlink:href="87A352F6.png"  transform="matrix(1 0 0 1 308 458)">
					</image>
				</g>
			</g>
		</g>
		<g>
			<g>
				<g id="blue_pendulum_scale_png-2" transform="translate(730 125) rotate(180)">
					
						<image style="overflow:visible;enable-background:new    ;" width="50" height="38" id="image_2_" xlink:href="87A352F1.png"  transform="matrix(-1 0 0 -1 730 125)">
					</image>
				</g>
			</g>
		</g>
		<g>
			<g>
				<g id="red_pendulum_scale_png-2" transform="translate(358 125) rotate(180)">
					
						<image style="overflow:visible;enable-background:new    ;" width="50" height="38" id="image-2_2_" xlink:href="87A352F3.png"  transform="matrix(-1 0 0 -1 358 125)">
					</image>
				</g>
			</g>
		</g>
	</g>
</g>
<g id="Camada_2">
	
		<image style="overflow:visible;enable-background:new    ;" width="947" height="431" id="Camada_4_copiar" xlink:href="87A352F0.png"  transform="matrix(0.6478 0 0 0.6478 221.5 244.8915)">
	</image>
	
		<image style="overflow:visible;enable-background:new    ;" width="947" height="431" id="Camada_4_copiar-2" xlink:href="87A352FE.png"  transform="matrix(0.6483 0 0 0.6483 204.6044 58.7827)">
	</image>
</g>
</svg>
