<?xml version="1.0" encoding="utf-8"?>
<!-- Generator: Adobe Illustrator 25.2.1, SVG Export Plug-In . SVG Version: 6.00 Build 0)  -->
<svg version="1.1" id="Layer_1" xmlns="http://www.w3.org/2000/svg" xmlns:xlink="http://www.w3.org/1999/xlink" x="0px" y="0px"
	 viewBox="0 0 1024 640" style="enable-background:new 0 0 1024 640;" xml:space="preserve">
<style type="text/css">
	.st0{display:none;}
	.st1{fill-opacity:0.3;}
	.st2{display:inline;fill:#0066FF;fill-opacity:0;}
	
		.st3{display:none;fill:none;stroke:url(#field_zones4_mc_0_Layer8_0_1_STROKES_1_);stroke-width:2.5;stroke-linecap:round;stroke-linejoin:round;}
	
		.st4{display:none;fill:none;stroke:url(#field_zones4_mc_0_Layer8_0_2_STROKES_1_);stroke-width:2.5;stroke-linecap:round;stroke-linejoin:round;}
	.st5{fill:#EA0C0C;}
	.st6{fill:#000DF9;}
	
		.st7{display:none;fill:none;stroke:url(#field_zones4_mc_0_Layer8_0_3_STROKES_1_);stroke-width:2.5;stroke-linecap:round;stroke-linejoin:round;}
	
		.st8{display:none;fill:none;stroke:url(#field_zones4_mc_0_Layer8_0_4_STROKES_1_);stroke-width:2.5;stroke-linecap:round;stroke-linejoin:round;}
	
		.st9{display:none;fill:none;stroke:url(#field_zones4_mc_0_Layer8_0_5_STROKES_1_);stroke-width:2.5;stroke-linecap:round;stroke-linejoin:round;}
	
		.st10{display:none;fill:none;stroke:url(#field_zones4_mc_0_Layer8_0_6_STROKES_1_);stroke-width:2.5;stroke-linecap:round;stroke-linejoin:round;}
	
		.st11{display:none;fill:none;stroke:url(#field_zones4_mc_0_Layer8_0_7_STROKES_1_);stroke-width:2.5;stroke-linecap:round;stroke-linejoin:round;}
	
		.st12{display:none;fill:none;stroke:url(#field_zones4_mc_0_Layer8_0_8_STROKES_1_);stroke-width:2.5;stroke-linecap:round;stroke-linejoin:round;}
	
		.st13{display:none;fill:none;stroke:url(#field_zones4_mc_0_Layer8_0_9_STROKES_1_);stroke-width:2.5;stroke-linecap:round;stroke-linejoin:round;}
	
		.st14{display:none;fill:none;stroke:url(#field_zones4_mc_0_Layer8_0_10_STROKES_1_);stroke-width:2.5;stroke-linecap:round;stroke-linejoin:round;}
</style>
<g id="field_zones_mc">
	<g id="field_zones4_mc_0_Layer10_0_FILL" class="st0">
		<path class="st1" d="M387,432c-4,0-6,2-6,6v79c0,4,2,6,6,6h79c4,0,6-2,6-6v-79c0-4-2-6-6-6H387 M472,345c0-4-2-6-6-6h-79
			c-4,0-6,2-6,6v79c0,4,2,6,6,6h79c4,0,6-2,6-6V345 M294,432c-4,0-6,2-6,6v79c0,4,2,6,6,6h79c4,0,6-2,6-6v-79c0-4-2-6-6-6H294
			 M227.5,339c-4,0-6,2-6,6v79c0,4,2,6,6,6h52c4,0,6-2,6-6v-79c0-4-2-6-6-6H227.5 M294,339c-4,0-6,2-6,6v79c0,4,2,6,6,6h79
			c4,0,6-2,6-6v-79c0-4-2-6-6-6H294 M213,246c-4,0-6,2-6,6v79c0,4,2,6,6,6h52c4,0,6-2,6-6v-79c0-4-2-6-6-6H213 M279.5,153h-52
			c-4,0-6,2-6,6v79c0,4,2,6,6,6h52c4,0,6-2,6-6v-79C285.5,155,283.5,153,279.5,153 M381,238c0,4,2,6,6,6h79c4,0,6-2,6-6v-79
			c0-4-2-6-6-6h-79c-4,0-6,2-6,6V238 M373,244c4,0,6-2,6-6v-79c0-4-2-6-6-6h-79c-4,0-6,2-6,6v79c0,4,2,6,6,6H373 M387,246
			c-4,0-6,2-6,6v79c0,4,2,6,6,6h79c4,0,6-2,6-6v-79c0-4-2-6-6-6H387 M379,66c0-4-2-6-6-6h-79c-4,0-6,2-6,6v79c0,4,2,6,6,6h79
			c4,0,6-2,6-6V66 M472,66c0-4-2-6-6-6h-79c-4,0-6,2-6,6v79c0,4,2,6,6,6h79c4,0,6-2,6-6V66 M817.5,345c0-4-2-6-6-6h-52c-4,0-6,2-6,6
			v79c0,4,2,6,6,6h52c4,0,6-2,6-6V345 M666,432c-4,0-6,2-6,6v79c0,4,2,6,6,6h79c4,0,6-2,6-6v-79c0-4-2-6-6-6H666 M573,432
			c-4,0-6,2-6,6v79c0,4,2,6,6,6h79c4,0,6-2,6-6v-79c0-4-2-6-6-6H573 M565,438c0-4-2-6-6-6h-79c-4,0-6,2-6,6v79c0,4,2,6,6,6h79
			c4,0,6-2,6-6V438 M565,345c0-4-2-6-6-6h-79c-4,0-6,2-6,6v79c0,4,2,6,6,6h79c4,0,6-2,6-6V345 M658,345c0-4-2-6-6-6h-79
			c-4,0-6,2-6,6v79c0,4,2,6,6,6h79c4,0,6-2,6-6V345 M666,339c-4,0-6,2-6,6v79c0,4,2,6,6,6h79c4,0,6-2,6-6v-79c0-4-2-6-6-6H666
			 M567,238c0,4,2,6,6,6h79c4,0,6-2,6-6v-79c0-4-2-6-6-6h-79c-4,0-6,2-6,6V238 M573,246c-4,0-6,2-6,6v79c0,4,2,6,6,6h79c4,0,6-2,6-6
			v-79c0-4-2-6-6-6H573 M559,244c4,0,6-2,6-6v-79c0-4-2-6-6-6h-79c-4,0-6,2-6,6v79c0,4,2,6,6,6H559 M565,66c0-4-2-6-6-6h-79
			c-4,0-6,2-6,6v79c0,4,2,6,6,6h79c4,0,6-2,6-6V66 M658,66c0-4-2-6-6-6h-79c-4,0-6,2-6,6v79c0,4,2,6,6,6h79c4,0,6-2,6-6V66 M833,252
			c0-4-2-6-6-6h-52c-4,0-6,2-6,6v79c0,4,2,6,6,6h52c4,0,6-2,6-6V252 M753.5,238c0,4,2,6,6,6h52c4,0,6-2,6-6v-79c0-4-2-6-6-6h-52
			c-4,0-6,2-6,6V238 M745,244c4,0,6-2,6-6v-79c0-4-2-6-6-6h-79c-4,0-6,2-6,6v79c0,4,2,6,6,6H745 M751,66c0-4-2-6-6-6h-79
			c-4,0-6,2-6,6v79c0,4,2,6,6,6h79c4,0,6-2,6-6V66z"/>
	</g>
	<g id="field_spell_pic_mc" class="st0">
		<g id="field_spell_pic_mc_0_Layer0_0_FILL">
			<path class="st2" d="M751,523V60H288v463H751z"/>
		</g>
	</g>
	
		<linearGradient id="field_zones4_mc_0_Layer8_0_1_STROKES_1_" gradientUnits="userSpaceOnUse" x1="-0.65" y1="110" x2="626.65" y2="110" gradientTransform="matrix(1 0 0 -1 207 262)">
		<stop  offset="0" style="stop-color:#00B400"/>
		<stop  offset="1" style="stop-color:#FF8F00"/>
	</linearGradient>
	<path id="field_zones4_mc_0_Layer8_0_1_STROKES" class="st3" d="M745,60h-79c-4,0-6,2-6,6v79c0,4,2,6,6,6h79c4,0,6-2,6-6V66
		C751,62,749,60,745,60z M660,159v79c0,4,2,6,6,6h79c4,0,6-2,6-6v-79c0-4-2-6-6-6h-79C662,153,660,155,660,159z M652,60h-79
		c-4,0-6,2-6,6v79c0,4,2,6,6,6h79c4,0,6-2,6-6V66C658,62,656,60,652,60z M559,60h-79c-4,0-6,2-6,6v79c0,4,2,6,6,6h79c4,0,6-2,6-6V66
		C565,62,563,60,559,60z M559,153h-79c-4,0-6,2-6,6v79c0,4,2,6,6,6h79c4,0,6-2,6-6v-79C565,155,563,153,559,153z M652,153h-79
		c-4,0-6,2-6,6v79c0,4,2,6,6,6h79c4,0,6-2,6-6v-79C658,155,656,153,652,153z M466,60h-79c-4,0-6,2-6,6v79c0,4,2,6,6,6h79
		c4,0,6-2,6-6V66C472,62,470,60,466,60z M373,60h-79c-4,0-6,2-6,6v79c0,4,2,6,6,6h79c4,0,6-2,6-6V66C379,62,377,60,373,60z M381,159
		v79c0,4,2,6,6,6h79c4,0,6-2,6-6v-79c0-4-2-6-6-6h-79C383,153,381,155,381,159z M373,153h-79c-4,0-6,2-6,6v79c0,4,2,6,6,6h79
		c4,0,6-2,6-6v-79C379,155,377,153,373,153z"/>
	
		<linearGradient id="field_zones4_mc_0_Layer8_0_2_STROKES_1_" gradientUnits="userSpaceOnUse" x1="-0.65" y1="-169" x2="626.65" y2="-169" gradientTransform="matrix(1 0 0 -1 207 262)">
		<stop  offset="0" style="stop-color:#FF0000"/>
		<stop  offset="1" style="stop-color:#9900FF"/>
	</linearGradient>
	<path id="field_zones4_mc_0_Layer8_0_2_STROKES" class="st4" d="M660,345v79c0,4,2,6,6,6h79c4,0,6-2,6-6v-79c0-4-2-6-6-6h-79
		C662,339,660,341,660,345z M652,339h-79c-4,0-6,2-6,6v79c0,4,2,6,6,6h79c4,0,6-2,6-6v-79C658,341,656,339,652,339z M474,345v79
		c0,4,2,6,6,6h79c4,0,6-2,6-6v-79c0-4-2-6-6-6h-79C476,339,474,341,474,345z M559,432h-79c-4,0-6,2-6,6v79c0,4,2,6,6,6h79
		c4,0,6-2,6-6v-79C565,434,563,432,559,432z M652,432h-79c-4,0-6,2-6,6v79c0,4,2,6,6,6h79c4,0,6-2,6-6v-79C658,434,656,432,652,432z
		 M745,432h-79c-4,0-6,2-6,6v79c0,4,2,6,6,6h79c4,0,6-2,6-6v-79C751,434,749,432,745,432z M373,339h-79c-4,0-6,2-6,6v79c0,4,2,6,6,6
		h79c4,0,6-2,6-6v-79C379,341,377,339,373,339z M288,438v79c0,4,2,6,6,6h79c4,0,6-2,6-6v-79c0-4-2-6-6-6h-79
		C290,432,288,434,288,438z M381,345v79c0,4,2,6,6,6h79c4,0,6-2,6-6v-79c0-4-2-6-6-6h-79C383,339,381,341,381,345z M466,432h-79
		c-4,0-6,2-6,6v79c0,4,2,6,6,6h79c4,0,6-2,6-6v-79C472,434,470,432,466,432z"/>
	<g transform="translate(0.000000,433.000000) scale(0.100000,-0.100000)">
		<path class="st5" d="M5676.8,1416.9v-452h461.7h461.7v452v452h-461.7h-461.7V1416.9z M6584,1416.9V974.7h-445.5h-445.5l-2,435.7
			c-0.7,240,0,439.6,2,444.2c2,6.5,94.9,7.8,446.8,6.5l444.2-2V1416.9z"/>
		<path class="st5" d="M7679.7,1413.6V964.9h331.7H8343v448.7v448.7h-331.7h-331.7V1413.6z M8328.7,1415.6l-2-440.9l-311.5-2
			c-189.2-0.7-314.7,1.3-318,4.6c-4.6,4.6-9.1,725.7-5.2,861l0.7,17.6h318.6H8330L8328.7,1415.6z"/>
		<path class="st5" d="M7731.8,1413.6V1030h279.6H8291v383.7v383.7h-279.6h-279.6V1413.6z M8250.7,1785
			c14.3-3.9,7.8-14.3-109.3-176.2c-68.3-94.9-127.5-172.3-131.4-172.3c-8.5,0-252.3,332.3-252.3,344c0,1.3,6.5,4.6,15,5.9
			C7796.1,1790.8,8234.4,1790.2,8250.7,1785z M8283.2,1410.4c0-178.8-2-330.4-4.6-336.9c-3.3-9.8-16.9,5.2-67.6,74.8
			c-176.9,241.9-187.9,258.2-184,273.8c3.3,13,85.2,128.8,200.9,284.2c42.9,57.2,46.8,60.5,50.7,45.5
			C8281.3,1742.7,8283.2,1589.2,8283.2,1410.4z M7793.5,1704.3c169.7-234.8,204.8-284.2,204.8-289.4c0-5.9-44.9-69.6-148.3-209.4
			c-109.9-148.9-101.4-139.2-106.6-122.3c-5.2,18.9-6.5,640.5-1.3,660.7c2.6,7.8,5.9,14.3,8.5,14.3
			C7752.6,1758.3,7772.1,1733.6,7793.5,1704.3z M8084.2,1301.8c148.9-204.8,180.8-249.1,180.8-253.6c0-6.5-13-6.5-253.6-6.5
			c-290,0.7-261.4-0.7-254.3,13c6.5,12.4,173.6,241.9,221.8,305.6c14.3,18.2,28.6,33.8,31.9,33.8S8047.2,1352.5,8084.2,1301.8z"/>
		<path class="st5" d="M2216.6,768.5c-2-266.6-2-407.7-0.7-585.3l1.3-161.3l317.3-1.3l316.7-2l2-463l1.3-462.4l1874.8,3.3
			c1030.7,1.3,2082.9,2.6,2337.8,2.6l463-0.7v457.2c0,346.6,2,459.1,7.8,465c5.9,5.9,87.8,7.8,328.4,7.8H8187V487v458.5h-325.2
			h-325.2l-1.3-128.1l-2-128.8h-58.5h-58.5l-2,125.5l-1.3,124.9h-347.9h-347.9l-1.3-124.9l-2-125.5h-113.8h-113.8l-2,125.5
			l-1.3,124.9h-347.9h-347.9V812.1V685.3l-118.4,1.3l-119,2l-2,125.5l-1.3,124.9h-347.9h-347.9V812.1V685.3l-119,1.3l-118.4,2
			l-2,125.5l-1.3,124.9h-347.9h-347.9l-1.3-124.9l-2-125.5l-118.4-2l-119-1.3v126.8v126.8H3326h-347.9l-1.3-124.9l-2-125.5h-55.3
			h-55.3l-2,128.8l-1.3,128.1h-321.9h-321.9L2216.6,768.5z M8174,928.5c4.6-4.6,5.9-144.4,5.2-448.7l-2-441.6l-316.7-2L7543.2,35
			v448.1v448.7l24.7,2C7633.6,939.6,8167.5,935,8174,928.5z M2853.2,860.9c1.3-37.7,0-113.2-2-168.4l-4.6-100.1l-23.4,43.6
			c-29.3,55.9-66.3,97.5-114.5,128.8c-121.6,78.7-278.3,66.3-385.6-29.9c-31.9-28.6-86.5-104-86.5-119.7c0-4.6-2.6-7.8-6.5-7.8
			c-3.9,0-6.5,58.5-6.5,162.6v162.6l314.1-1.3l313.4-2L2853.2,860.9z M3660.9,805.6l3.3-123.6l57.2-2c53.3-2,56.6-2.6,57.2-16.3
			c4.6-75.4,3.3-608-1.3-617.1c-5.9-11.1-32.5-11.7-457.2-11.7h-450.7l-3.9,21.5c-3.9,28-4.6,559.3,0,595l3.3,27.3h57.9h57.9v122.3
			c0,67.6,2,124.9,4.6,126.8c2,2.6,153.5,3.9,336.2,3.3l332.3-2L3660.9,805.6z M4598.6,807.6l2-125.5l56.6-2l56.6-2l3.9-27.3
			c2-15,2.6-157.4,2-316.7l-2-289.4l-456.5-2l-457.2-1.3v318.6v318l60.5,2l59.8,2l2,125.5l1.3,124.9h334.9h334.9L4598.6,807.6z
			 M5535,807.6l2-125.5l58.5-3.3l58.5-3.3V360.2V44.8l-456.5-2l-457.2-1.3v318.6v318l60.5,2l59.8,2l2,125.5l1.3,124.9h334.9h334.9
			L5535,807.6z M6472.8,912.3c2-11.1,3.9-68.3,3.9-126.8v-106l57.2-2l56.6-2V360.2V44.8l-456.5-2l-457.2-1.3v318.6v318l60.5,2
			l59.8,2l2,125.5l1.3,124.9h334.3h334.3L6472.8,912.3z M7401.4,807.6l2-125.5l58.5-3.3l58.5-3.3V360.2V44.8l-457.2-2l-456.5-1.3
			l1.3,316.7l2,317.3l58.5,3.3l58.5,3.3l2,125.5l1.3,124.9h334.9h334.9L7401.4,807.6z M2522.8,801.7c0-4.6-22.8-50.7-50.1-104
			l-50.7-96.2l-78-44.2c-71.5-41-109.9-60.5-119-60.5c-1.3,0-1.3,17.6,0.7,39c7.8,87.1,79.3,190.5,162.6,234.8
			C2444.8,800.4,2522.8,818.6,2522.8,801.7z M2626.9,794.6C2735.5,762.7,2835,645.6,2846,537c4.6-43.6,11.7-44.9-104,19.5
			l-82.6,45.5l-51.4,98.2c-28.6,54-50.7,100.8-48.8,103.4C2562.5,808.9,2590.5,805,2626.9,794.6z M2603.5,687.9
			c23.4-42.9,42.9-81.3,42.9-85.2c0-3.3-20.8-28-46.8-54c-41-42.3-46.8-46.8-51.4-35.8c-5.9,15.6-7.2,214.6-2,243.2
			c2.6,11.7,6.5,18.9,9.8,15.6C2558.6,769.2,2580.1,731.5,2603.5,687.9z M2479.9,542.2c23.4-25.4,42.9-48.8,42.9-52
			c0-3.9-50.7-6.5-133.3-6.5c-78,0-133.3,2.6-133.3,5.9c0,8.5,156.1,98.2,169.7,98.2C2431.8,587.8,2455.9,566.9,2479.9,542.2z
			 M2818.7,471.4c10.4-3.9,1.3-11.7-52-42.9c-35.8-20.8-71.5-41.6-79.3-46.2c-23.4-14.3-36.4-11.1-64.4,18.9
			c-47.5,50.7-55.9,61.8-51.4,68.9C2576.2,478.5,2797.9,479.2,2818.7,471.4z M2345.3,399.8c40.3-22.8,75.4-44.2,78.7-48.8
			c20.2-24.7,99.5-187.9,94.3-193.1c-3.9-3.9-19.5-3.3-41.6,0.7c-91,16.9-182.1,89.1-223.7,176.9c-22.8,47.5-34.5,99.5-27.3,118.4
			c3.9,9.1,6.5,9.1,25.4-1.3C2262.7,446,2305,421.9,2345.3,399.8z M2537.2,384.9c2.6-94.3-0.7-200.3-6.5-200.3
			c-5.2,0-15.6,18.2-64.4,109.3l-35.8,66.3l27.3,32.5c28.6,34.5,62.4,65,71.5,65C2532.6,457.7,2535.9,424.5,2537.2,384.9z
			 M2848,439.5c0-25.4-17.6-82.6-37.1-121.6c-24.1-46.8-87.8-107.3-140.5-133.3c-40.3-19.5-108.6-34.5-108.6-22.8
			c0,8.5,72.2,147.6,90.4,174.9c13,19.5,36.4,36.4,101.4,73.5c46.8,26,86.5,47.5,89.7,47.5C2846,457.7,2848,449.2,2848,439.5z
			 M2848,197.6V28.5l-310.2,1.3l-310.8,2l-2,161.3c-0.7,88.4,0.7,160.6,3.3,160.6c3.3,0,13.7-16.9,24.7-37.7
			c24.1-45.5,86.5-108.6,130.7-132.7c64.4-34.5,153.5-46.8,223.7-30.6c86.5,19.5,172.3,87.8,214.6,169.7
			c12.4,24.7,23.4,44.2,24.7,44.2C2847.3,366.7,2848,290.6,2848,197.6z M3776.6,10.9c2.6-6.5,4.6-212,4.6-457.2v-445.5l-456.5-2
			l-457.2-1.3v454.6c0,357.7,2,455.2,8.5,457.8c3.9,2,207.4,3.9,452,3.9C3744.8,22,3772.1,21.3,3776.6,10.9z M4713.7,12.9
			c5.2-5.9,6.5-131.4,5.9-456.5l-2-448.1h-455.2h-455.2l-2,451.3c-1.3,357,0,452.6,6.5,457.2c4.6,2.6,208.1,5.2,451.3,5.2
			C4629.2,22,4707.9,20.7,4713.7,12.9z M5649.5,16.8c6.5-4.6,7.8-100.1,6.5-457.2l-2-451.3h-452h-452l-2,451.3
			c-1.3,357,0,452.6,6.5,457.2c4.6,2.6,206.1,5.2,447.4,5.2S5644.9,19.4,5649.5,16.8z M6579.4,16.8c6.5-4.6,7.8-100.1,6.5-457.2
			l-2-451.3h-452h-452l-2,451.3c-1.3,357,0,452.6,6.5,457.2c4.6,2.6,206.1,5.2,447.4,5.2S6574.9,19.4,6579.4,16.8z M7515.9-438.4
			l1.3-456.5l-453.3,1.3l-453.9,2l-2,451.3c-1.3,357,0,452.6,6.5,457.2c4.6,2.6,208.7,4.6,453.9,3.3l445.5-1.3L7515.9-438.4z"/>
		<path class="st5" d="M3280.4-317.5c-42.9-25.4-106.6-62.4-141.8-83.2l-64.4-37.1l143.1-82.6c78.7-44.9,145-81.9,148.3-81.9
			c8.5,0,160,161.9,157.4,168.4c-3.9,10.4-152.8,163.2-158.7,162.6C3361.1-271.3,3323.4-292.1,3280.4-317.5z M3437.2-359.1
			c52-54.6,65-72.2,62.4-83.2c-5.9-22.1-124.9-140.5-140.5-139.8c-7.8,0-65,29.9-127.5,67c-80.6,46.8-113.8,69.6-113.8,78
			c0,8.5,33.2,31.2,117.1,79.3c64.4,37.1,121.6,67.6,126.8,67.6C3366.9-290.1,3401.4-321.4,3437.2-359.1z"/>
		<path class="st5" d="M3359.1-308.4c-2.6-4.6,0-9.8,7.8-13c18.9-7.2,102.1-104.7,101.4-119c-0.7-9.8,0.7-11.1,7.8-5.2
			c9.1,7.8,11.1,5.2-83.9,112.5C3373.4-311.6,3362.4-303.2,3359.1-308.4z"/>
		<path class="st5" d="M3331.8-326.6c-11.7-9.1-11.7-9.8,2.6-2.6c7.8,3.9,14.3,8.5,14.3,9.8C3348.7-314.2,3345.5-315.5,3331.8-326.6
			z"/>
		<path class="st5" d="M3282.4-352.6c-24.7-13-23.4-18.2,1.3-5.9c11.1,5.9,19.5,11.7,19.5,13
			C3303.2-340.9,3302.6-341.5,3282.4-352.6z"/>
		<path class="st5" d="M3236.9-378.6c-24.7-13-23.4-18.2,1.3-5.9c11.1,5.9,19.5,11.7,19.5,13C3257.7-366.9,3257-367.5,3236.9-378.6z
			"/>
		<path class="st5" d="M3191.4-404.6c-24.7-13-23.4-18.2,1.3-5.9c11.1,5.9,19.5,11.7,19.5,13
			C3212.2-392.9,3211.5-393.5,3191.4-404.6z"/>
		<path class="st5" d="M3149.1-428.7l-15-8.5l21.5-12.4c17.6-10.4,19.5-10.4,11.7-1.3c-4.6,5.9-7.2,15.6-4.6,20.8
			C3166.6-418.3,3167.3-418.3,3149.1-428.7z"/>
		<path class="st5" d="M3358.5-433.2c-5.2-8.5,5.9-13,15.6-7.2c6.5,3.9,5.9,6.5-2,9.1C3366.9-429.3,3360.4-430,3358.5-433.2z"/>
		<path class="st5" d="M3192.7-468.3c0-2,5.9-6.5,13-10.4c7.2-3.9,13-5.2,13-3.9c0,2-5.9,6.5-13,10.4
			C3198.5-468.3,3192.7-467,3192.7-468.3z"/>
		<path class="st5" d="M3432.6-489.8l-22.1-24.7l24.7,22.1c13,12.4,24.1,23.4,24.1,24.7C3459.3-462.5,3454.1-467.7,3432.6-489.8z"/>
		<path class="st5" d="M3238.2-494.3c0-2,5.9-6.5,13-10.4c7.2-3.9,13-5.2,13-3.9c0,2-5.9,6.5-13,10.4S3238.2-493,3238.2-494.3z"/>
		<path class="st5" d="M3296.7-526.9c0-2,5.9-6.5,13-10.4c7.2-3.9,13-5.2,13-3.9c0,2-5.9,6.5-13,10.4S3296.7-525.6,3296.7-526.9z"/>
		<path class="st5" d="M3374.7-547.7c-9.1-5.2-20.2-7.8-24.1-5.9c-13,4.6-9.8-2,3.9-9.1c9.1-5.2,15-3.3,26.7,9.1
			C3398.2-535.3,3397.5-534.7,3374.7-547.7z"/>
		<path class="st5" d="M6929.9-351.3c-41.6-44.9-76.1-83.2-76.1-85.2c0-8.5,150.9-165.8,158.7-165.2c13.7,0.7,279,158.7,278.3,165.2
			c-1.3,5.9-272.5,165.8-280.9,165.8C7008-270.6,6972.2-307.1,6929.9-351.3z M7143.9-358.4c87.1-50.7,117.7-71.5,117.1-80
			c-2-12.4-226.3-144.4-245.8-144.4c-18.2,0-138.5,127.5-138.5,147c0,9.8,19.5,34.5,60.5,76.7c57.9,58.5,68.3,67,81.9,68.3
			C7022.3-290.1,7078.2-320.7,7143.9-358.4z"/>
		<path class="st5" d="M6989.8-327.9c-12.4-13-15-17.6-5.9-10.4c9.1,7.8,21.5,16.9,28.6,20.2c6.5,3.9,9.1,8.5,5.9,10.4
			C7015.1-305.1,7002.1-314.2,6989.8-327.9z"/>
		<path class="st5" d="M7061.9-338.3c0-2,9.1-7.8,19.5-13.7c11.1-5.9,19.5-8.5,19.5-7.2c0,2-8.5,7.8-19.5,13.7
			C7071.1-339.6,7061.9-337,7061.9-338.3z"/>
		<path class="st5" d="M7107.5-364.3c0-2,9.1-7.8,19.5-13.7c11.1-5.9,19.5-8.5,19.5-7.2c0,2-8.5,7.8-19.5,13.7
			C7116.6-365.6,7107.5-363,7107.5-364.3z"/>
		<path class="st5" d="M6924.7-398.7l-15.6-18.2l18.2,15.6c9.8,9.1,17.6,16.9,17.6,18.2C6944.9-377.9,6939.7-382.5,6924.7-398.7z"/>
		<path class="st5" d="M7166-396.8c0-2,9.1-7.8,19.5-13.7c11.1-5.9,19.5-8.5,19.5-7.2c0,2-8.5,7.8-19.5,13.7
			C7175.1-398.1,7166-395.5,7166-396.8z"/>
		<path class="st5" d="M7216.1-433.2c2.6-8.5-2.6-15-16.9-22.1c-11.1-5.9-20.2-12.4-20.2-14.3c0-2.6,51.4,24.1,63.7,33.2
			c0.6,0.7-5.9,4.6-14.3,8.5C7214.8-422.2,7213.5-422.8,7216.1-433.2z"/>
		<path class="st5" d="M6893.5-432.6c-6.5-3.9-5.9-6.5,2-9.1c5.2-2,11.7-1.3,13.7,2C6914.3-431.3,6903.3-426.7,6893.5-432.6z"/>
		<path class="st5" d="M7002.1-437.8c3.9-1.3,11.7-1.3,16.3,0c3.9,2,0.7,3.3-8.5,3.3C7000.8-434.5,6997.6-435.8,7002.1-437.8z"/>
		<path class="st5" d="M6925.4-475.5c8.5-9.1,16.9-16.3,18.2-16.3c2,0-3.3,7.2-11.7,16.3c-8.5,9.1-16.9,16.3-18.2,16.3
			C6911.7-459.2,6916.9-466.4,6925.4-475.5z"/>
		<path class="st5" d="M7142.6-489.1c-11.7-9.1-11.7-9.8,2.6-2.6c7.8,3.9,14.3,8.5,14.3,9.8C7159.5-476.8,7156.2-478.1,7142.6-489.1
			z"/>
		<path class="st5" d="M7097.1-515.2c-11.7-9.1-11.7-9.8,2.6-2.6c7.8,3.9,14.3,8.5,14.3,9.8C7114-502.8,7110.7-504.1,7097.1-515.2z"
			/>
		<path class="st5" d="M6993-548.3c10.4-11.7,21.5-19.5,25.4-16.9c3.3,2,0.7,6.5-5.9,10.4c-7.2,3.3-18.2,11.1-25.4,16.9
			S6982.6-537.3,6993-548.3z"/>
		<path class="st5" d="M7047.6-541.2c-24.7-13-23.4-18.2,1.3-5.9c11.1,5.9,19.5,11.7,19.5,13
			C7068.5-529.5,7067.8-530.1,7047.6-541.2z"/>
	</g>
	<g transform="translate(0.000000,433.000000) scale(0.100000,-0.100000)">
		<path class="st6" d="M4741.6,3727.2L2879,3726l-1.3-461.4l-1.9-460.8l-324.9-1.9l-325.5-1.3v-456.3v-456.3h323.6h323.6v126.2V2141
			l63.4-1.9l62.8-1.9l1.9-124.9l1.3-124.3l341.7,1.3l341.1,1.9l1.9,124.9l1.3,124.3h116.5H3921l1.3-124.3l1.9-124.9l341.7-1.9
			l341.1-1.3l0.6,85.4c0.6,47.2,1.3,103.6,1.9,124.9l0.6,38.8l121,1.9l121.7,1.3l1.3-124.3l1.9-124.9h343h343l1.9,124.9l1.3,124.3
			l121.7-1.3l121-1.9l1.9-124.9l1.3-124.3h343h343v126.2v126.2h123h123l1.3-124.3l1.9-124.9l341.1-1.9l341.7-1.3l1.3,124.3
			l1.9,124.9l57,1.9l56.3,1.9v-126.8v-126.2h323.6H8173v459.5v459.5l-318.4,1.3l-319.1,1.9v456.3c0,251.1-2.6,458.2-5.8,460.2
			c-2.6,2.6-212.3,3.9-466,3.2C6810.7,3729.8,5765.5,3728.5,4741.6,3727.2z M3796.7,3261.3l1.3-454.3l-454.3,1.3l-455,1.9
			l-1.9,446.6c-0.6,245.3,0,449.8,1.9,454.3c1.9,7.1,92.5,8.4,454.3,7.1l451.7-1.9L3796.7,3261.3z M4722.2,3261.9l1.3-455h-453h-453
			v451.7c0,248.5,1.9,454.3,4.5,456.3c1.9,2.6,205.2,3.9,451.1,3.2l447.2-1.9L4722.2,3261.9z M5647.7,3711.7
			c6.5-8.4,10.4-851.1,3.9-886.7l-3.9-18.1h-452.4h-452.4v451.7c0,248.5,1.9,454.3,4.5,456.3c1.9,2.6,204.5,4.5,448.5,4.5
			C5544.1,3719.5,5642.5,3717.5,5647.7,3711.7z M6584.2,3713c3.2-5.2,5.8-697,3.2-885.4v-20.7l-454.3,1.3l-455,1.9l-1.9,446.6
			c-0.6,245.9,0,450.4,1.9,455C5682,3722.1,6577.7,3723.4,6584.2,3713z M7522.6,3263.2v-453l-454.3-1.9l-455-1.3v456.3v456.3
			l455-1.3l454.3-1.9V3263.2z M8120,2796.6l47.2-3.9l-1.3-161.2c0-88.7-2.6-161.2-4.5-161.2c-2.6,0-14.2,18.1-26.5,40.8
			c-64.7,117.8-198,185.7-325.5,167c-55-8.4-124.3-40.1-165.7-75.1c-30.4-26.5-73.1-85.4-91.9-128.1l-12.3-27.2v172.8l-0.6,172.8
			l18.1,1.9C7588.6,2799.2,8072.1,2800.5,8120,2796.6z M2862.8,2344.2v-446.6h-313.9H2235l-1.9,440.1c-0.6,242.1,0,444,1.9,448.5
			c1.9,6.5,68.6,7.8,315.2,6.5l312.6-1.9V2344.2z M3794.8,2467.2V2150l-56.3-1.9l-57-1.9v-119.1c0-73.1-2.6-120.4-6.5-123
			c-5.2-3.2-247.2-4.5-629.1-3.2h-37.5v123v123h-51.1c-28.5,0-55.7,1.9-61.5,3.9c-9.1,3.2-10.4,37.5-10.4,315.8
			c0,172.2,1.9,314.5,4.5,316.5c1.9,2.6,207.1,3.9,454.3,3.2l450.4-1.9V2467.2z M4722.2,2469.1l-1.9-319.1l-59.5-1.9l-60.2-1.9
			v-122.3v-123l-23.9-0.6c-112.6-1.9-638.1,1.3-643.3,3.9c-3.2,2.6-5.8,55.7-5.8,123.6v119.1h-47.9c-26.5,0-52.4,1.9-58.2,3.9
			c-9.1,3.2-10.4,37.5-10.4,315.8c0,172.2,1.9,314.5,4.5,316.5c1.9,2.6,207.7,4.5,456.3,4.5h451.7L4722.2,2469.1z M5660.6,2471
			c1.3-246.6,0-314.5-6.5-319.1c-4.5-2.6-32.4-5.2-60.8-5.2c-36.9,0-53.7-2.6-56.3-8.4c-1.3-4.5-3.2-58.9-3.9-121
			c-0.6-61.5-1.9-113.3-3.2-115.2c-1.9-1.9-335.2-2.6-626.5-1.3h-37.5v123v123h-51.1c-28.5,0-55.7,1.9-61.5,3.9
			c-9.1,3.2-10.4,37.5-10.4,315.8c0,172.2,1.9,314.5,4.5,316.5c1.9,2.6,208.4,3.9,457.6,3.2l453.7-1.9L5660.6,2471z M6590.6,2467.2
			V2150l-59.5-1.9l-60.2-1.9v-122.3v-123l-27.2-0.6c-23.3,0-479.6,0-608.4,0.6h-37.5v123v123h-51.1c-28.5,0-55.7,1.9-60.8,3.9
			c-8.4,3.2-10.4,44.7-11,315.8c0,171.5,1.3,313.9,3.9,316.5c2.6,2.6,209,3.9,458.2,3.2l453.7-1.9V2467.2z M7524.5,2469.1
			l-1.9-319.1l-59.5-1.9l-60.2-1.9v-122.3v-123l-23.9-0.6c-20.1,0-459.5,0-608.4,0.6h-40.8v123v122.3l-56.3,1.9l-57,1.9l-1.9,319.1
			l-1.3,318.4h456.3h456.3L7524.5,2469.1z M7830,2667.1c0-2.6-22.7-47.2-49.8-100.3l-50.5-95.8l-68-38.8
			c-101.6-57-116.5-65.4-120.4-65.4c-7.1,0,5.2,61.5,20.7,102.9c27.8,73.8,84.1,135.3,156,171.5
			C7763.4,2663.9,7830,2679.4,7830,2667.1z M7947.8,2657.4c104.2-34.9,188.3-127.5,212.3-234.3c7.8-34.9,2.6-66.7-9.1-57.6
			c-3.9,3.2-27.2,16.8-52.4,30.4c-121.7,65.4-130.7,72.5-154,115.2c-33.7,60.8-82.2,154-82.2,157.3
			C7862.4,2675.6,7912.2,2669.7,7947.8,2657.4z M7906.4,2563.6c25.2-48.5,46.6-92.5,46.6-97.7c0-12.3-90.6-106.1-97.7-101.6
			c-7.1,3.9-7.8,287.4-0.6,287.4C7857.2,2651.6,7880.5,2612.1,7906.4,2563.6z M7780.8,2411.5c23.3-25.2,42.7-48.5,42.7-51.1
			c0-11.6-165-16.8-235.6-7.8c-26.5,3.9-30.4,5.8-22,12.3c15.5,13.6,156.6,91.9,165,92.5C7734.9,2457.5,7757.5,2436.7,7780.8,2411.5
			z M8140.7,2342.3c0-5.2-170.2-104.8-179.3-104.8c-8.4,0-99,93.2-99,101.6c0,6.5,30.4,8.4,139.1,8.4
			C8077.9,2347.4,8140.7,2344.8,8140.7,2342.3z M8162.7,2318.3c10.4-40.8-30.4-138.5-80.3-193.5c-40.1-43.4-84.8-72.5-136.6-88.7
			c-40.1-12.3-83.5-16.2-83.5-7.1c0,2.6,23.3,47.9,51.1,101l51.1,96.4l92.5,53.7c51.1,29.1,95.1,53.7,97.1,53.7
			C8156.9,2334.5,8160.7,2327.4,8162.7,2318.3z M7576.3,2312.5c16.8-8.4,58.2-31.7,91.9-51.1l60.8-35.6l53.1-99
			c52.4-97.1,53.1-99.7,37.5-101.6c-8.4-1.3-32.4,2.6-53.1,8.4c-94.5,27.2-175.4,104.2-207.7,199.3c-14.2,40.1-23.9,95.1-17.5,95.1
			C7544,2328,7559.5,2320.9,7576.3,2312.5z M7843,2184.3c0-165.7,5.2-162.4-61.5-36.9l-42.1,78.3l20.1,25.2c17.5,22,75.1,77,80.9,77
			C7841.7,2328,7843,2263.3,7843,2184.3z M7617.7,2117.7c62.8-69.2,138.5-101.6,234.9-101.6c123.6,0,228.5,62.8,285.4,172.2
			c10.4,20.1,20.7,36.2,23.3,36.2s4.5-71.2,5.2-157.9c0-125.6-1.3-158.6-8.4-164.4c-6.5-5.8-94.5-7.1-312.6-5.8l-303.5,1.3
			l-1.9,174.7l-1.3,174.7l23.9-47.9C7575.7,2173.3,7600.9,2136.4,7617.7,2117.7z"/>
		<path class="st6" d="M3254.4,3348.6c-76.4-44-139.1-82.8-140.4-86.1c-1.3-5.2,260.8-159.2,278.9-163.1
			c7.8-1.9,159.2,154,159.2,163.7c0,5.2-150.1,165-155.3,165C3394.8,3428.2,3330.7,3392,3254.4,3348.6z M3468.6,3340.9
			c33.7-34.3,62.1-65.4,63.4-68.6c1.3-3.9-4.5-6.5-12.9-5.8c-29.8,2.6-163.1,0-160.5-3.2c1.9-1.3,41.4-3.2,88.7-3.9
			c47.2,0,85.4-2.6,85.4-4.5c-0.6-2.6-29.1-34.3-64.1-70.5c-39.5-41.4-68.6-66.7-76.4-66.7c-20.7,0-244.6,132.7-244.6,145
			c0,14.9,228.5,147.6,246.6,143C3401.9,3404.3,3434.9,3374.5,3468.6,3340.9z"/>
		<path class="st6" d="M3369.6,3379.1c-24.6-12.9-22.7-18.1,1.9-5.8c18.1,9.7,21.4,9.7,36.9-0.6l17.5-11l-12.3,13.6
			C3399.3,3392,3393.5,3392,3369.6,3379.1z"/>
		<path class="st6" d="M3324.3,3353.2c-24.6-12.9-23.3-18.1,1.3-5.8c11,5.8,19.4,11.6,19.4,12.9
			C3345,3364.8,3344.3,3364.2,3324.3,3353.2z"/>
		<path class="st6" d="M3279,3327.3c-24.6-12.9-23.3-18.1,1.3-5.8c11,5.8,19.4,11.6,19.4,12.9
			C3299.7,3338.9,3299,3338.3,3279,3327.3z"/>
		<path class="st6" d="M3448.5,3329.2c0-1.3,9.7-10.4,21.4-21.4l20.7-18.8l-18.8,21.4C3453.7,3329.9,3448.5,3334.4,3448.5,3329.2z"
			/>
		<path class="st6" d="M3205.8,3287.2l-45.3-24.6l34.3-17.5c18.1-9.7,33.7-16.2,33.7-14.2c0,1.3-8.4,7.1-19.4,12.9
			c-10.4,5.8-19.4,13.6-19.4,18.8c0,4.5,14.9,16.2,32.4,25.9c18.1,9.7,32.4,18.8,32.4,20.7C3254.4,3313,3255.7,3313.7,3205.8,3287.2
			z"/>
		<path class="st6" d="M3477,3226.3l-18.8-21.4l21.4,18.8c19.4,18.1,23.9,23.3,18.8,23.3C3497.1,3247,3488,3237.3,3477,3226.3z"/>
		<path class="st6" d="M3234.9,3225c0-1.9,9.1-7.8,19.4-13.6c11-5.8,19.4-8.4,19.4-7.1c0,1.9-8.4,7.8-19.4,13.6
			C3244,3223.7,3234.9,3226.3,3234.9,3225z"/>
		<path class="st6" d="M3283.5,3197.2c3.9-3.9,27.2-17.5,51.8-31.1c25.2-13.6,42.7-22,38.8-18.1c-3.2,3.9-26.5,17.5-51.8,31.1
			C3297.7,3192.7,3280.3,3201.1,3283.5,3197.2z"/>
		<path class="st6" d="M3428.5,3171.3c-5.2-5.8-17.5-15.5-27.2-22c-10.4-5.8-16.2-12.3-12.3-14.2c3.2-2.6,16.8,7.8,30.4,21.4
			c14.2,14.2,23.3,25.9,21.4,25.9S3433,3177.8,3428.5,3171.3z"/>
		<path class="st6" d="M6947.3,3348c-41.4-44-75.1-82.8-75.1-86.1c0-7.1,148.2-163.7,155.3-163.7c6.5,0,271.2,152.1,279.6,160.5
			c3.9,3.9-51.8,39.5-135.9,88c-77.7,44.7-143,81.5-145,81.5C7024.3,3428.2,6988.7,3392,6947.3,3348z M7093.5,3377.1
			c29.8-16.8,81.5-47.2,115.2-66.7c39.5-23.3,62.1-40.1,62.8-47.9c1.3-9.7-24.6-27.8-119.7-82.2c-66.7-38.2-121.7-66.7-123-62.8
			c-1.3,3.9-4.5,5.2-7.8,3.2c-4.5-2.6-129.4,127.5-129.4,135.3c0,10.4,18.1,1.3,42.1-20.1c17.5-16.8,20.1-18.1,7.8-4.5
			c-9.7,10.4-17.5,21.4-17.5,23.9c0,2.6,31.1,4.5,68.6,3.9c37.5,0,69.9,1.3,71.8,3.2c3.9,3.9-124.3,7.1-157.9,3.9
			c-8.4-0.6-14.9,1.3-14.9,3.9c0,7.1,117.8,127.5,129.4,133.3C7036.6,3410.8,7036.6,3410.1,7093.5,3377.1z"/>
		<path class="st6" d="M7001,3365.5l-22-23.9l24.6,20.7c13.6,11.6,25.9,20.7,27.2,20.7c1.9,0,19.4-9.1,38.8-20.1
			c19.4-11,35.6-18.8,35.6-16.8c0,3.9-69.2,43.4-76.4,43.4C7026.2,3389.4,7013.3,3378.4,7001,3365.5z"/>
		<path class="st6" d="M7111.6,3342.2c0-1.3,26.5-18.1,58.2-36.9c37.5-22,58.2-37.5,57-44c-1.9-8.4-181.9-117.8-194.2-117.8
			c-3.2,0-19.4,12.3-36.2,27.2l-30.4,27.2l31.1-33l31.7-32.4l112,63.4c62.1,35.6,115.8,64.1,119.7,64.1c3.9,0-11,9.7-33.7,21.4
			c-22.7,11.6-57.6,31.1-77.7,42.7C7128.5,3335.7,7111.6,3344.1,7111.6,3342.2z"/>
		<path class="st6" d="M6942.7,3300.7l-22-24.6l24.6,22c22,21.4,27.2,26.5,22,26.5C6966,3324.7,6955,3313.7,6942.7,3300.7z"/>
		<path class="st6" d="M2071.3,1420.6l1.9-448.5h326.8h326.8l1.9,448.5l1.3,447.9h-330.1H2070L2071.3,1420.6z M2709.4,1858.2
			l14.2-3.9v-431.7c0-326.8-1.9-433.6-7.8-439.4c-5.8-5.8-84.1-7.8-313.2-7.8c-168.3,0-310,1.9-315.8,3.9
			c-9.1,3.9-10.4,48.5-10.4,439.4c0,342.4,1.9,436.2,8.4,438.8C2095.9,1862.7,2692,1862.7,2709.4,1858.2z"/>
		<path class="st6" d="M2136.7,1798.6l-14.9-1.9v-381.2v-381.2l277,1.3l276.4,1.3l1.9,380.6c1.3,301.6,0,379.9-6.5,380.5
			C2651.8,1800.6,2149.6,1800.6,2136.7,1798.6z M2658.9,1786.3c0-3.2-41.4-62.1-91.3-131.4c-132-182.5-160.5-220-167-220
			c-3.2,0-56.3,69.2-117.8,154c-61.5,84.1-118.4,162.4-126.8,174.1c-7.8,11-14.9,22-14.9,23.9c0,1.9,116.5,3.9,258.9,3.9
			S2658.9,1788.9,2658.9,1786.3z M2209.1,1673.7c172.2-236.9,183.8-254.3,178-264.7c-5.8-11-182.5-255-225.2-311.9
			c-12.9-17.5-25.9-31.1-28.5-31.1c-2.6,0-5.2,158.6-5.2,352.7s1.9,352.7,5.2,352.7C2136,1771.4,2170.3,1727.4,2209.1,1673.7z
			 M2671.9,1414.8c0-188.3-2.6-342.4-5.2-342.4c-3.2,0-11.6,6.5-18.8,14.9c-27.8,31.1-234.9,321.7-234.9,330.1
			c0,15.5,245.3,348.8,253.1,343.7C2669.3,1759.1,2671.9,1613.5,2671.9,1414.8z M2527.6,1234.3c66.7-92.5,122.3-172.8,123.6-178
			c1.9-8.4-29.1-9.7-250.5-9.7c-152.1,0-253.1,2.6-253.1,5.8c0,5.8,69.9,104.2,185.1,262.1c27.8,38.2,53.7,73.8,57.6,79
			c3.2,5.2,8.4,9.1,11,9.1S2460.3,1326.8,2527.6,1234.3z"/>
		<path class="st6" d="M3805.8,1417.4l1.9-451.7l458.2-1.9l457.6-1.3v453v453H4264h-459.5L3805.8,1417.4z M4709.3,1419.4
			c1.3-347.5,0-440.7-6.5-445.3c-9.7-5.8-859.5-7.1-875-1.3c-9.1,3.9-10.4,48.5-10.4,442c0,241.4,1.9,440.7,4.5,442.7
			c1.9,2.6,202.6,3.9,444.6,3.2l440.7-1.9L4709.3,1419.4z"/>
	</g>
	
		<linearGradient id="field_zones4_mc_0_Layer8_0_3_STROKES_1_" gradientUnits="userSpaceOnUse" x1="-16.15" y1="-122.5" x2="611.15" y2="-122.5" gradientTransform="matrix(1 0 0 -1 207 262)">
		<stop  offset="0" style="stop-color:#FF0000"/>
		<stop  offset="1" style="stop-color:#9900FF"/>
	</linearGradient>
	<path id="field_zones4_mc_0_Layer8_0_3_STROKES" class="st7" d="M811.5,339h-52c-4,0-6,2-6,6v79c0,4,2,6,6,6h52c4,0,6-2,6-6v-79
		C817.5,341,815.5,339,811.5,339z"/>
	
		<linearGradient id="field_zones4_mc_0_Layer8_0_4_STROKES_1_" gradientUnits="userSpaceOnUse" x1="13.85" y1="-122.5" x2="641.15" y2="-122.5" gradientTransform="matrix(1 0 0 -1 207 262)">
		<stop  offset="0" style="stop-color:#FF0000"/>
		<stop  offset="1" style="stop-color:#9900FF"/>
	</linearGradient>
	<path id="field_zones4_mc_0_Layer8_0_4_STROKES" class="st8" d="M227.5,430h52c4,0,6-2,6-6v-79c0-4-2-6-6-6h-52c-4,0-6,2-6,6v79
		C221.5,428,223.5,430,227.5,430z"/>
	
		<linearGradient id="field_zones4_mc_0_Layer8_0_5_STROKES_1_" gradientUnits="userSpaceOnUse" x1="-16.15" y1="63.5" x2="611.15" y2="63.5" gradientTransform="matrix(1 0 0 -1 207 262)">
		<stop  offset="0" style="stop-color:#00B400"/>
		<stop  offset="1" style="stop-color:#FF8F00"/>
	</linearGradient>
	<path id="field_zones4_mc_0_Layer8_0_5_STROKES" class="st9" d="M753.5,238c0,4,2,6,6,6h52c4,0,6-2,6-6v-79c0-4-2-6-6-6h-52
		c-4,0-6,2-6,6V238z"/>
	
		<linearGradient id="field_zones4_mc_0_Layer8_0_6_STROKES_1_" gradientUnits="userSpaceOnUse" x1="-53.15" y1="63.5" x2="574.15" y2="63.5" gradientTransform="matrix(1 0 0 -1 207 262)">
		<stop  offset="0" style="stop-color:#00B400"/>
		<stop  offset="1" style="stop-color:#FF8F00"/>
	</linearGradient>
	<path id="field_zones4_mc_0_Layer8_0_6_STROKES" class="st10" d="M279.5,153h-52c-4,0-6,2-6,6v79c0,4,2,6,6,6h52c4,0,6-2,6-6v-79
		C285.5,155,283.5,153,279.5,153z"/>
	
		<linearGradient id="field_zones4_mc_0_Layer8_0_7_STROKES_1_" gradientUnits="userSpaceOnUse" x1="-0.65" y1="-29.5" x2="626.65" y2="-29.5" gradientTransform="matrix(1 0 0 -1 207 262)">
		<stop  offset="0" style="stop-color:#00B400"/>
		<stop  offset="1" style="stop-color:#FF8F00"/>
	</linearGradient>
	<path id="field_zones4_mc_0_Layer8_0_7_STROKES" class="st11" d="M381,252v79c0,4,2,6,6,6h79c4,0,6-2,6-6v-79c0-4-2-6-6-6h-79
		C383,246,381,248,381,252z"/>
	
		<linearGradient id="field_zones4_mc_0_Layer8_0_8_STROKES_1_" gradientUnits="userSpaceOnUse" x1="-0.65" y1="-29.5" x2="626.65" y2="-29.5" gradientTransform="matrix(1 0 0 -1 207 262)">
		<stop  offset="0" style="stop-color:#FF0000"/>
		<stop  offset="1" style="stop-color:#9900FF"/>
	</linearGradient>
	<path id="field_zones4_mc_0_Layer8_0_8_STROKES" class="st12" d="M652,246h-79c-4,0-6,2-6,6v79c0,4,2,6,6,6h79c4,0,6-2,6-6v-79
		C658,248,656,246,652,246z"/>
	
		<linearGradient id="field_zones4_mc_0_Layer8_0_9_STROKES_1_" gradientUnits="userSpaceOnUse" x1="-1.25" y1="-29.5" x2="627.25" y2="-29.5" gradientTransform="matrix(1 0 0 -1 207 262)">
		<stop  offset="0" style="stop-color:#00B400"/>
		<stop  offset="1" style="stop-color:#FF8B00"/>
	</linearGradient>
	<path id="field_zones4_mc_0_Layer8_0_9_STROKES" class="st13" d="M265,246h-52c-4,0-6,2-6,6v79c0,4,2,6,6,6h52c4,0,6-2,6-6v-79
		C271,248,269,246,265,246z"/>
	
		<linearGradient id="field_zones4_mc_0_Layer8_0_10_STROKES_1_" gradientUnits="userSpaceOnUse" x1="-1.25" y1="-29.5" x2="627.25" y2="-29.5" gradientTransform="matrix(1 0 0 -1 207 262)">
		<stop  offset="0" style="stop-color:#FF0000"/>
		<stop  offset="1" style="stop-color:#9900FF"/>
	</linearGradient>
	<path id="field_zones4_mc_0_Layer8_0_10_STROKES" class="st14" d="M827,246h-52c-4,0-6,2-6,6v79c0,4,2,6,6,6h52c4,0,6-2,6-6v-79
		C833,248,831,246,827,246z"/>
</g>
<g id="Camada_2_1_" class="st0">
	
		<image style="display:inline;overflow:visible;enable-background:new    ;" width="948" height="433" id="Camada_4_copiar" xlink:href="87A352F0.png"  transform="matrix(0.6467 0 0 0.6467 221.9119 244.044)">
	</image>
	
		<image style="display:inline;overflow:visible;enable-background:new    ;" width="948" height="433" id="Camada_4_copiar-2" xlink:href="87A352FE.png"  transform="matrix(0.6472 0 0 0.6472 205.0165 57.9349)">
	</image>
</g>
</svg>
